<?xml version="1.0" encoding="UTF-8" standalone="no"?>
<!-- Created with Inkscape (http://www.inkscape.org/) -->

<svg
   width="215.90001mm"
   height="279.40002mm"
   viewBox="0 0 215.90001 279.40001"
   version="1.1"
   id="svg1"
   xml:space="preserve"
   xmlns="http://www.w3.org/2000/svg"
   xmlns:svg="http://www.w3.org/2000/svg"><defs
     id="defs1"><clipPath
       clipPathUnits="userSpaceOnUse"
       id="clipPath1"><path
         id="path1"
         style="display:none;fill:#191919;fill-opacity:1;stroke:none;stroke-width:0.971513;stroke-dasharray:none;stroke-opacity:1"
         d="m 219.77566,56.17954 v 7.74061 h -20.79098 v 3.87005 h 20.79098 V 323.96888 H 181.4302 v 3.87006 h 38.34546 v 8.14988 h 3.87005 v -8.14988 h 192.67868 v 8.14988 h 3.87005 v -8.14988 h 41.04504 v -3.87006 H 420.19444 V 67.7902 h 58.59953 v -3.87005 h -58.59953 v -7.74061 h -3.87005 v 7.74061 H 223.64571 v -7.74061 z m 3.87005,11.61066 H 416.32439 V 323.96888 H 223.64571 Z" /><path
         id="lpe_path-effect1"
         style="display:block;fill:#191919;fill-opacity:1;stroke:none;stroke-width:0.971513;stroke-dasharray:none;stroke-opacity:1"
         class="powerclip"
         d="m 210.90532,55.049809 h 218.1595 V 336.70929 h -218.1595 z m 8.87034,1.129731 v 7.74061 h -20.79098 v 3.87005 h 20.79098 V 323.96888 H 181.4302 v 3.87006 h 38.34546 v 8.14988 h 3.87005 v -8.14988 h 192.67868 v 8.14988 h 3.87005 v -8.14988 h 41.04504 v -3.87006 H 420.19444 V 67.7902 h 58.59953 v -3.87005 h -58.59953 v -7.74061 h -3.87005 v 7.74061 H 223.64571 v -7.74061 z m 3.87005,11.61066 V 323.96888 H 416.32439 V 67.7902 Z" /></clipPath></defs><g
     id="layer1"
     transform="translate(-399.01098,-338.51515)"
     style="display:inline"><path
       style="display:inline;fill:#fad0f4;fill-opacity:1;stroke:none;stroke-width:0.790174;stroke-dasharray:none;stroke-opacity:1"
       id="rect217"
       width="208.1595"
       height="271.65948"
       x="215.90532"
       y="60.049809"
       clip-path="url(#clipPath1)"
       transform="translate(186.97592,282.33561)"
       d="m 215.90532,60.049809 h 208.1595 V 331.70929 h -208.1595 z" /><g
       id="g192"
       transform="translate(398.83622,306.7345)"><path
         style="fill:#680a66;fill-opacity:1;stroke-width:0.438219"
         d="m 164.95306,213.48399 c -2.45237,-2.83741 -10.18436,-14.18365 -10.18436,-14.18365 -0.22099,8.62323 -35.07468,17.98629 -36.77594,35.14426 2.67046,4.47082 12.63635,5.69205 12.63635,5.69205 3.40035,-17.2505 35.76868,-10.87767 34.32395,-26.65266 z"
         id="path185" /><path
         style="fill:#680a66;fill-opacity:1;stroke-width:0.729656"
         d="m 95.516107,116.94525 c -4.074751,3.60112 -16.58732,7.85619 -16.58732,7.85619 0,0 2.771165,-0.87569 -0.355684,-3.25042 8.61355,-0.64655 -1.832571,-14.2699 -49.381145,-19.67359 -2.599795,-13.773515 7.161518,-21.27751 7.161518,-21.27751 11.561122,18.05414 65.309574,6.966001 59.162631,36.34533 z"
         id="path186" /><path
         id="path187"
         style="fill:#680a66;fill-opacity:1;stroke-width:0.494237"
         d="m 43.396769,146.43849 c -2.347244,5.84838 11.234082,10.83763 16.754902,11.83994 12.00045,1.66544 24.956277,1.45398 35.393336,-6.00603 -3.737873,-8.02302 -24.289207,-9.05504 -31.985771,-9.28421 -14.197856,-0.46794 5.04283,-4.28742 2.572694,-5.06628 -9.829836,-3.25454 -16.459583,0.0861 -22.735161,8.51658 z" /><path
         style="fill:#680a66;fill-opacity:1;stroke-width:0.729656"
         d="m 43.339289,182.09595 c 5.629616,-4.76278 14.221061,-9.525 14.221061,-9.525 0,0 -3.886529,2.20141 -0.759683,4.57615 -2.427102,2.83064 -2.98331,10.30566 12.397844,14.92691 15.381157,4.62124 46.699639,6.38871 53.287619,1.98705 5.41733,8.70138 9.83062,19.51756 9.83062,19.51756 -17.12957,-1.51635 -95.081626,-2.30794 -88.977461,-31.48267 z"
         id="path188" /><path
         d="m 38.150267,225.14599 v -2.19348 h 2.721064 c 11.442425,0 17.163638,-5.26435 17.163638,-15.79305 V 85.640667 c 0,-9.943776 -5.721213,-14.915664 -17.163638,-14.915664 h -2.721064 v -2.19348 h 65.642993 c 18.14042,0 31.60621,3.582684 40.39733,10.748052 8.93069,7.019137 13.39602,17.109144 13.39602,30.270015 0,8.48146 -1.6745,15.5006 -5.02351,21.05741 -3.20946,5.41059 -7.39571,9.65132 -12.55876,12.72219 -5.02349,3.07087 -10.25631,5.41058 -15.69845,7.01913 l 29.51308,48.25656 c 5.72122,9.35885 10.25633,15.79306 13.60533,19.30263 3.34901,3.36333 6.69801,5.045 10.04701,5.045 h 0.62793 v 2.19348 h -2.93037 c -6.55846,0 -12.00059,-0.21935 -16.32638,-0.65804 -4.18626,-0.58493 -7.67481,-1.53544 -10.46565,-2.85153 -2.79083,-1.31609 -5.30258,-3.2171 -7.53524,-5.70304 -2.09313,-2.63218 -4.39557,-5.99552 -6.90733,-10.09001 L 101.70013,152.10311 H 79.175541 v 55.05635 c 0,10.5287 5.72121,15.79305 17.163643,15.79305 h 2.72107 v 2.19348 z m 65.015053,-75.23636 c 11.58197,0 19.81493,-2.92464 24.69889,-8.77392 4.88396,-5.99551 7.32594,-16.01241 7.32594,-30.05068 0,-14.476962 -2.51174,-24.786318 -7.53525,-30.928063 -5.02351,-6.287976 -13.32624,-9.431964 -24.90821,-9.431964 H 79.175541 v 79.184627 z"
         id="path189"
         style="font-size:219.348px;font-family:'Noto Serif Display';-inkscape-font-specification:'Noto Serif Display';fill:#191919;fill-opacity:1;stroke-width:0.627748"
         aria-label="R" /><path
         style="fill:#c617b3;fill-opacity:1;stroke-width:0.729656"
         d="m 95.578947,116.84526 c -7.149923,4.35632 -11.126924,6.29449 -27.537365,2.37041 -13.378275,-3.19903 -13.755774,-3.01541 -15.980636,1.22581 -3.345175,6.37674 -9.083486,22.77143 -8.969183,27.18429 4.381611,-4.14907 7.082296,-7.11777 22.915633,-4.94344 21.896287,3.00693 20.391204,-0.14034 21.957544,-5.47896 1.566338,-5.33861 4.429334,-13.29447 7.614007,-20.35811 z"
         id="path190" /><path
         style="fill:#c617b3;fill-opacity:1;stroke-width:0.729656"
         d="m 95.578947,152.23074 c -7.149923,4.35632 -11.126924,6.29449 -27.537365,2.37041 -13.378275,-3.19903 -13.755774,-3.01541 -15.980636,1.22581 -3.345175,6.37674 -9.083486,22.77143 -8.969183,27.18429 4.381611,-4.14907 7.082296,-7.11777 22.915633,-4.94344 21.896287,3.00693 20.391204,-0.14034 21.957544,-5.47896 1.566338,-5.33861 4.429334,-13.29447 7.614007,-20.35811 z"
         id="path191" /><path
         style="fill:#c617b3;fill-opacity:1;stroke-width:0.651506"
         d="m 165.0997,213.6538 c -7.37736,-3.36606 -2.65189,-4.69449 -19.58434,-1.66243 -13.80383,2.47184 -14.19334,2.32996 -16.48897,-0.94716 -3.45159,-4.9272 -8.72767,-14.38731 -7.14527,-17.65532 0.30144,-2.04102 5.19624,2.1103 21.53535,0.47019 15.4045,-1.5463 19.38628,-1.68265 21.00245,2.44249 1.61616,4.12506 -2.6052,11.89427 0.68078,17.35223 z"
         id="path192" /></g><path
       d="m 503.1282,562.40637 c -0.0961,0.71925 -0.55814,2.95436 -0.65337,3.56636 0.16817,-0.0715 0.33409,-0.14953 0.50332,-0.21755 1.4346,-0.86251 3.39624,-0.36013 2.55827,1.92031 -1.13028,4.45199 -2.5626,8.70299 -4.79722,12.66622 -2.03064,3.44431 -4.25324,6.77279 -6.31693,10.19473 -1.82368,1.12026 -3.90756,1.79007 -5.78104,2.84013 -2.08529,1.10037 -4.22857,2.13887 -6.17482,3.46904 -1.23479,0.85321 -0.25268,2.84692 1.18908,2.15233 1.51014,-0.40902 2.15361,-2.00536 3.69589,-2.44327 1.64314,-0.88548 3.3162,-1.71397 5.00435,-2.50992 -2.18226,2.81758 0.0336,4.23603 0.93401,2.44036 0.83611,-1.20642 1.60511,-3.9904 3.21096,-4.38443 5.59938,-2.46273 11.38086,-4.84854 17.509,-5.51956 1.80256,-0.0858 4.25554,-0.17121 5.13768,1.77767 0.0711,1.15733 2.41712,0.73816 1.53685,-0.68988 -0.19981,-0.53616 -1.63992,-2.48387 -3.00395,-2.61896 -4.10832,-1.06053 -8.35616,0.21988 -12.30674,1.36116 -2.767,0.84798 -5.46998,1.88564 -8.1287,3.02565 3.85453,-6.15038 8.20592,-14.21502 10.82776,-21.03386 0.70144,-1.89354 1.13054,-4.60388 -0.84078,-5.90972 -0.23705,-0.1462 -0.49983,-0.25309 -0.77049,-0.31316 -1.13642,-0.20636 -2.24944,-0.0746 -3.33313,0.22635 z"
       style="-inkscape-font-specification:'Creattion Demo';display:inline;fill:#c617b3"
       id="path204"
       transform="translate(-1.125e-5,1.0208333e-5)" /><path
       d="m 452.84058,570.18314 -7.2797,-11.43669 h -4.7338 v 11.43669 h -3.79897 v -26.83146 h 9.58693 q 4.63434,0 7.06091,1.92932 2.42657,1.90943 2.42657,5.48961 0,2.96359 -1.86965,4.99236 -1.84976,2.02877 -4.97247,2.54591 l 7.95595,11.87426 z m -0.55692,-19.35286 q 0,-4.43545 -6.04653,-4.43545 h -5.41005 v 9.34825 h 5.56917 q 2.84426,0 4.35589,-1.27295 1.53152,-1.27296 1.53152,-3.63985 z m 20.78494,16.5285 h 7.55816 v 2.82436 h -19.53188 v -2.82436 h 8.39354 v -15.87214 h -6.34488 v -2.82436 h 9.92506 z m -3.97798,-22.87338 v -3.81886 h 3.97798 v 3.81886 z m 35.28467,14.83786 q 0,5.64873 -2.02877,8.45321 -2.00888,2.80447 -5.76807,2.80447 -4.85313,0 -6.64322,-3.65974 h -0.0398 q 0,0.95471 -0.0796,1.98899 -0.0597,1.03427 -0.0995,1.27295 h -3.46084 q 0.11934,-1.07405 0.11934,-4.43544 v -25.08116 h 3.58018 v 8.41343 q 0,1.29284 -0.0796,3.12271 h 0.0796 q 1.80998,-3.97798 6.64322,-3.97798 7.77695,0 7.77695,11.09856 z m -3.69952,0.11934 q 0,-4.45534 -1.23317,-6.44433 -1.21329,-2.00887 -3.81886,-2.00887 -2.9636,0 -4.31611,2.18788 -1.35251,2.168 -1.35251,6.58356 0,4.15699 1.31273,6.16587 1.31273,2.00887 4.31611,2.00887 2.68513,0 3.87853,-2.06854 1.21328,-2.08844 1.21328,-6.42444 z m 28.1442,-0.11934 q 0,5.64873 -2.02877,8.45321 -2.00888,2.80447 -5.76807,2.80447 -4.85313,0 -6.64322,-3.65974 h -0.0398 q 0,0.95471 -0.0796,1.98899 -0.0597,1.03427 -0.0995,1.27295 h -3.46084 q 0.11934,-1.07405 0.11934,-4.43544 v -25.08116 h 3.58018 v 8.41343 q 0,1.29284 -0.0796,3.12271 h 0.0796 q 1.80998,-3.97798 6.64322,-3.97798 7.77695,0 7.77695,11.09856 z m -3.69952,0.11934 q 0,-4.45534 -1.23317,-6.44433 -1.21329,-2.00887 -3.81886,-2.00887 -2.9636,0 -4.31611,2.18788 -1.35251,2.168 -1.35251,6.58356 0,4.15699 1.31273,6.16587 1.31273,2.00887 4.31611,2.00887 2.68513,0 3.87853,-2.06854 1.21328,-2.08844 1.21328,-6.42444 z m 28.28343,-0.0398 q 0,5.42994 -2.50613,8.31398 -2.48623,2.86414 -7.20014,2.86414 -4.61445,0 -7.0808,-2.90392 -2.44646,-2.90393 -2.44646,-8.2742 0,-5.54928 2.50613,-8.33386 2.52601,-2.80448 7.14047,-2.80448 4.85313,0 7.22003,2.7647 2.3669,2.76469 2.3669,8.37364 z m -3.75919,0 q 0,-4.27633 -1.3724,-6.38466 -1.35252,-2.10832 -4.39567,-2.10832 -3.08293,0 -4.51501,2.1481 -1.43207,2.14811 -1.43207,6.34488 0,4.17688 1.43207,6.36477 1.43208,2.16799 4.29622,2.16799 3.16249,0 4.57468,-2.12821 1.41218,-2.12822 1.41218,-6.40455 z m 23.64908,10.78032 v -13.82347 q 0,-2.70503 -1.05416,-4.01776 -1.03428,-1.31273 -3.32161,-1.31273 -2.46635,0 -4.05754,1.80998 -1.5713,1.79009 -1.5713,4.87302 v 12.47096 h -3.58018 v -16.9263 q 0,-3.75919 -0.11934,-4.59456 h 3.38128 q 0.0199,0.0995 0.0398,0.53703 0.0199,0.43757 0.0398,1.01438 0.0398,0.55692 0.0796,2.12822 h 0.0597 q 2.08844,-4.07743 6.8819,-4.07743 3.44095,0 5.13159,1.86965 1.69064,1.84976 1.69064,5.7084 v 14.34061 z"
       id="text192"
       style="font-size:40.7345px;font-family:'Liberation Mono';-inkscape-font-specification:'Liberation Mono';text-align:center;text-anchor:middle;fill:#1c1c1c;stroke-width:0.119339"
       aria-label="Ribbon" /><path
       id="path200"
       style="color:#000000;-inkscape-font-specification:'Creattion Demo';fill:#c617b3;stroke-width:1;stroke-dasharray:none;-inkscape-stroke:none"
       d="m 556.91766,577.97309 c -1.07091,1.24221 -3.62566,0.48917 -1.98644,-0.48317 2.63391,-1.00404 -0.78531,-3.27506 -2.7218,-2.27376 -1.93648,1.0013 -2.51075,1.69365 -5.06739,3.00188 -1.48705,0.76092 -0.37734,-2.34598 -1.62332,-2.34787 -1.33056,-0.002 -3.0848,2.6598 -5.41497,3.70048 -3.24043,1.48454 1.05466,-1.92661 0.17518,-3.3259 -0.87948,-1.39929 -2.86024,1.08703 -3.85971,1.88929 -0.99947,0.80226 -2.45459,2.04513 -1.0573,0.4377 1.39729,-1.60743 -1.1791,-3.21516 -4.32662,-0.10079 -3.14752,3.11437 -6.16632,5.27997 -5.83969,4.28245 1.01672,-2.91535 3.35799,-5.63884 5.38778,-6.89855 2.02979,-1.25971 3.28733,1.1784 3.85145,-0.88651 -0.537,-2.63319 -4.07192,-0.86895 -5.55677,5.2e-4 -1.48483,0.86947 -3.77506,5.26253 -3.84731,3.283 -0.0723,-1.97953 -2.73623,-2.10974 -3.84317,-0.54673 0.59014,-1.07367 2.88327,-3.61041 0.30075,-3.76205 -1.77404,0.86912 -1.27715,3.61882 -3.24683,4.40955 -1.19954,1.09795 -2.52992,-0.38703 -1.24075,-0.83354 2.49581,-0.77214 -0.35976,-3.43176 -2.33525,-2.39985 -1.97551,1.03191 -4.4351,2.44287 -5.64152,4.58835 -0.55431,3.0076 3.7668,0.743 4.87102,-0.16692 1.13737,-1.3048 1.55452,1.968 3.38429,0.75861 0.3698,-0.26662 0.33368,1.69841 1.89319,0.79959 1.55953,-0.89882 3.99707,-3.69922 4.36032,-2.43346 0.36325,1.26576 -0.061,1.53149 -0.29673,3.38278 -0.23567,1.85128 2.19017,3.35774 4.04412,1.56976 1.85395,-1.788 4.64425,-3.78733 5.72368,-4.42816 -1.42029,2.28032 -1.07392,3.33713 -3.35007,5.56527 -2.27614,2.22816 -8.05099,9.28747 -7.34902,10.14437 1.14565,1.3985 2.5489,-0.97444 3.8732,-3.02013 1.32431,-2.04569 3.99062,-4.85767 5.86523,-7.3503 1.72662,-1.34614 3.20767,-2.96689 4.63899,-4.61729 -0.0289,2.77645 3.40626,1.6311 4.9258,0.9002 1.51954,-0.73088 3.26301,-3.63913 3.85403,-1.10639 0.89129,3.81954 6.83506,-1.04391 7.80982,0.43178 1.19266,1.80558 3.50449,-0.7756 1.89084,1.25522 -2.0304,2.68489 1.60013,4.54256 3.4525,2.204 1.89118,-1.15207 4.61551,-3.82612 5.71852,-4.43487 -1.42049,2.28079 -4.1795,7.4547 -6.25473,9.22298 -2.46442,2.68721 -4.75138,5.64706 -3.53651,6.83043 1.21487,1.18337 2.8752,-1.22316 3.7022,-2.69867 1.82588,-2.59918 3.25563,-5.52177 5.12785,-8.01605 1.54381,-0.97918 3.50222,-3.96211 4.408,-3.59254 1.08159,2.28965 4.40509,0.44615 5.81102,-0.0765 1.40593,-0.52263 4.65813,-2.88698 2.15232,-2.62103 -2.14701,0.22786 -6.02212,2.59804 -6.15828,2.00401 -0.13616,-0.59403 4.72801,-1.18738 4.91598,-4.03696 0.18497,-2.80414 -3.82041,-0.88287 -4.79971,0.49816 -1.09849,1.43377 -3.58096,3.74211 -4.29327,4.13928 0.82211,-1.60364 1.96685,-3.10469 2.44532,-4.84725 -1.81347,-1.88476 -4.12696,1.76663 -5.52064,2.96356 -1.39369,1.19692 -6.05735,4.50793 -5.72621,3.46396 1.08082,-2.998 3.50708,-5.65809 6.51949,-6.76807 1.03206,-0.26076 2.57514,1.01051 2.63602,-0.97771 -0.0892,-0.7775 -0.79068,-1.21735 -2.46212,-0.85189 -1.67144,0.36546 -4.34934,2.46301 -6.38278,4.17573 z m -40.52335,-1.77761 c 0.61468,0.66433 -1.70169,1.87045 -2.77009,2.41507 -1.0683,0.54466 -2.6585,1.44613 -2.87665,1.02731 -0.21821,-0.41858 1.10319,-1.77228 2.28986,-2.37729 1.18667,-0.60501 2.7422,-1.72942 3.35688,-1.06509 z m 37.6665,0.16704 c 0.53063,0.70607 -0.95558,1.69615 -2.02347,2.24056 -1.06797,0.54438 -3.20548,1.854 -3.42385,1.43548 -0.2182,-0.41858 1.59121,-2.41992 2.6332,-2.95115 1.04199,-0.53123 2.28348,-1.43095 2.81412,-0.72489 z" /><path
       id="path205"
       style="fill:#c617b3;fill-opacity:1;stroke-width:1.11955"
       d="m 500.30615,563.52775 c -0.54073,0.26409 -1.07034,0.54119 -1.58698,0.8108 -2.74664,1.64309 -5.72944,3.51249 -7.08846,6.54172 -0.38016,1.15486 -0.34524,2.81225 1.01027,2.90318 1.97281,-0.26506 1.6772,-3.21307 3.02761,-4.46154 1.35041,-1.24847 2.37307,-1.31468 3.42936,-2.91837 0.13094,-0.16569 0.25302,-0.34348 0.36432,-0.5364 0.36392,-0.62642 0.64467,-1.4075 0.84388,-2.33939 z" /></g></svg>
